<svg xmlns="http://www.w3.org/2000/svg" viewBox="0 -0.5 32 32" shape-rendering="crispEdges">
<metadata>Made with Pixels to Svg https://codepen.io/shshaw/pen/XbxvNj</metadata>
<path stroke="#5ab552" d="M10 0h1M17 0h1M27 0h1M5 1h1M10 1h1M16 1h1M27 1h1M5 2h1M9 2h1M16 2h1M26 2h1M4 3h1M8 3h1M15 3h1M26 3h1M4 4h1M10 4h1M14 4h1M17 4h1M21 4h1M23 4h1M25 4h1M3 5h1M9 5h1M12 5h1M20 5h1M23 5h1M3 6h1M12 6h1M16 6h1M18 6h1M22 6h1M27 6h1M3 7h1M11 7h1M15 7h1M18 7h1M22 7h1M26 7h1M28 7h1M2 8h1M7 8h1M11 8h1M17 8h1M21 8h1M28 8h1M2 9h1M6 9h1M10 9h1M16 9h1M27 9h1M1 10h1M18 10h1M23 10h1M27 10h1M11 11h1M17 11h1M22 11h1M26 11h1M6 12h1M11 12h1M15 12h1M25 12h1M2 13h1M5 13h1M10 13h1M14 13h1M1 14h1M5 14h1M10 14h1M4 15h1M9 15h1M3 16h1M26 21h2M25 22h1M8 23h3M7 24h1M11 24h2" />
<path stroke="#227845" d="M11 0h1M11 1h1M17 1h1M10 2h1M12 2h1M17 2h1M27 2h1M5 3h1M9 3h1M13 3h1M16 3h1M18 3h1M27 3h1M5 4h1M7 4h2M15 4h1M19 4h1M26 4h1M28 4h1M4 5h1M6 5h1M25 5h1M29 5h1M7 6h1M19 6h1M23 6h1M12 7h1M19 7h1M23 7h1M3 8h1M12 8h1M18 8h1M20 8h1M22 8h1M24 8h1M3 9h1M11 9h1M13 9h1M17 9h1M21 9h1M25 9h1M28 9h1M2 10h1M4 10h1M10 10h1M14 10h1M28 10h1M1 11h1M5 11h1M27 11h1M29 11h1M26 12h1M30 12h1M6 13h1M11 13h1M6 14h1M11 14h1M5 15h1M7 15h1M10 15h1M12 15h1M4 16h1M8 16h2M29 22h1M27 23h2M9 25h1M10 26h2M13 26h1" />
<path stroke="#2c1e31" d="M15 0h2M13 1h2M18 1h1M19 2h2M22 3h1M24 4h1M1 7h2M29 7h2M0 8h1M31 8h1M0 9h1M31 9h1M0 10h1M31 10h1M0 11h1M31 11h1M0 12h1M31 12h1M0 13h1M31 13h1M0 14h1M31 14h1M0 15h1M31 15h1M0 16h1M31 16h1M0 17h1M31 17h1M0 18h1M31 18h1M0 19h1M31 19h1M0 20h1M31 20h1M0 21h1M31 21h1M0 22h1M31 22h1M0 23h1M31 23h1M1 24h2M29 24h2M3 25h2M27 25h2M5 26h2M25 26h2M7 27h2M23 27h2M9 28h2M21 28h2M11 29h2M19 29h2M13 30h2M17 30h2M15 31h2" />
<path stroke="#26854c" d="M15 1h1M11 2h1M13 2h3M18 2h1M10 3h3M14 3h1M17 3h1M19 3h3M9 4h1M11 4h3M16 4h1M18 4h1M20 4h1M22 4h1M27 4h1M5 5h1M7 5h2M10 5h2M13 5h7M21 5h2M24 5h1M26 5h3M4 6h3M8 6h4M13 6h3M17 6h1M20 6h2M24 6h3M28 6h1M4 7h7M13 7h2M16 7h2M20 7h2M24 7h2M27 7h1M1 8h1M4 8h3M8 8h3M13 8h4M19 8h1M23 8h1M25 8h3M29 8h2M1 9h1M4 9h2M7 9h3M12 9h1M14 9h2M18 9h3M22 9h3M26 9h1M29 9h2M3 10h1M5 10h5M11 10h3M15 10h3M19 10h4M24 10h3M29 10h2M2 11h3M6 11h5M12 11h5M18 11h4M23 11h3M28 11h1M30 11h1M1 12h5M7 12h4M12 12h3M16 12h3M20 12h2M23 12h2M27 12h3M1 13h1M3 13h2M7 13h3M12 13h2M15 13h1M17 13h1M24 13h7M2 14h3M7 14h3M12 14h4M26 14h1M28 14h1M1 15h3M6 15h1M8 15h1M11 15h1M13 15h2M1 16h2M5 16h3M10 16h3M1 17h12M3 18h3M7 18h3M8 19h1M28 21h1M26 22h3M25 23h2M8 24h3M13 24h1M8 25h1M10 25h5M12 26h1" />
<path stroke="#6e4c30" d="M19 12h1M22 12h1M16 13h1M22 13h1M16 14h1M27 14h1M20 15h1M27 15h1M13 16h1M18 16h2M13 17h1M17 17h1M2 18h1M6 18h1M16 18h1M2 19h1M6 19h1M16 21h1M17 22h2M19 23h1M21 23h1" />
<path stroke="#9de64e" d="M18 13h4M23 13h1M17 14h8M29 14h2M15 15h5M22 15h5M28 15h3M14 16h4M21 16h2M26 16h5M14 17h3M19 17h5M27 17h4M1 18h1M11 18h5M18 18h3M22 18h3M29 18h2M1 19h1M3 19h1M5 19h1M7 19h1M9 19h11M23 19h4M30 19h1M1 20h6M10 20h1M13 20h7M23 20h6M30 20h1M1 21h4M13 21h3M18 21h8M29 21h2M1 22h2M8 22h9M20 22h5M30 22h1M1 23h2M6 23h2M11 23h8M22 23h3M29 23h2M3 24h4M14 24h15M5 25h3M15 25h5M21 25h6M7 26h3M14 26h4M22 26h3M9 27h7M20 27h3M11 28h4M19 28h2M13 29h6M15 30h2" />
<path stroke="#a26d3f" d="M25 14h1M21 15h1M20 16h1M18 17h1M10 18h1M17 18h1M4 19h1M20 20h1M22 20h1M17 21h1M19 22h1M20 23h1" />
<path stroke="#8fd147" d="M23 16h3M24 17h3M25 18h4M27 19h3M7 20h3M11 20h2M29 20h1M5 21h8M3 22h5M3 23h3M20 25h1M18 26h4M16 27h4M15 28h4" />
<path stroke="#ec273f" d="M21 18h1M20 19h1M22 19h1" />
<path stroke="#de5d3a" d="M21 19h1" />
<path stroke="#ac2847" d="M21 20h1" />
</svg>