<svg xmlns="http://www.w3.org/2000/svg" viewBox="0 -0.5 32 32" shape-rendering="crispEdges">
<metadata>Made with Pixels to Svg https://codepen.io/shshaw/pen/XbxvNj</metadata>
<path stroke="#ffffff" d="M11 0h1M21 0h1M6 1h1M11 1h1M15 1h1M20 1h2M26 1h2M5 2h2M11 2h1M15 2h2M20 2h1M22 2h1M25 2h3M4 3h4M10 3h2M14 3h2M19 3h3M25 3h2M28 3h2M4 4h4M14 4h2M19 4h1M24 4h3M3 5h4M8 5h1M13 5h2M17 5h1M24 5h3M29 5h1M3 6h3M13 6h2M17 6h1M23 6h3M2 7h2M9 7h1M13 7h1M23 7h3M2 8h1M12 8h2M18 8h1M22 8h3M11 9h2M18 9h1M22 9h2M4 10h2M11 10h2M19 10h1M22 10h1M4 11h3M11 11h2M19 11h1M3 12h3M11 12h2M19 12h1M24 12h2M30 12h1M3 13h4M10 13h3M20 13h1M24 13h2M30 13h1M3 14h1M5 14h3M10 14h2M23 14h4M2 15h1M5 15h2M10 15h1M23 15h4M29 15h2M2 16h1M5 16h3M10 16h1M22 16h3M27 16h1M29 16h1M2 17h1M6 17h2M22 17h2M27 17h2M7 18h2M13 18h1M21 18h3M13 19h2M21 19h1M12 20h3M12 21h3M12 22h1M17 22h1M11 23h2M10 24h1" />
<path stroke="#2c1e31" d="M15 0h2M13 1h2M17 1h2M19 2h1M1 7h1M0 8h1M31 8h1M0 9h1M31 9h1M0 10h1M31 10h1M0 11h1M31 11h1M0 12h1M31 12h1M0 13h1M31 13h1M0 14h1M31 14h1M0 15h1M31 15h1M0 16h1M31 16h1M0 17h1M31 17h1M0 18h1M31 18h1M0 19h1M31 19h1M0 20h1M31 20h1M0 21h1M31 21h1M0 22h1M31 22h1M0 23h1M31 23h1M1 24h2M29 24h2M3 25h2M27 25h2M5 26h2M25 26h2M7 27h2M23 27h2M9 28h2M21 28h2M11 29h2M19 29h2M13 30h2M17 30h2M15 31h2" />
<path stroke="#5e5b8c" d="M12 1h1M13 2h1M9 3h1M10 4h1M18 4h1M11 5h2M18 5h1M12 6h1M18 6h2M12 7h1M19 7h1M20 8h1M20 9h2M6 10h1M10 10h1M20 10h2M29 10h1M7 11h1M10 11h1M21 11h1M29 11h2M7 12h1M9 12h2M28 12h2M8 13h2M22 13h1M28 13h2M8 14h2M22 14h1M27 14h3M8 15h1M22 15h1M28 15h1M9 16h1M15 16h1M21 16h1M28 16h1M15 17h2M21 17h1M1 18h1M14 18h3M20 18h1M1 19h1M16 19h2M19 19h2M16 20h5M11 21h1M17 21h3M30 21h1M10 22h2M18 22h2M30 22h1M10 23h1M18 23h2M26 23h1M28 23h3M5 24h1M8 24h2M19 24h1M26 24h3M5 25h5M19 25h1M25 25h2M7 26h2M24 26h1M22 27h1M19 28h2M15 29h1M17 29h2M15 30h2" />
<path stroke="#928a98" d="M16 1h1M8 2h1M14 2h1M17 2h2M17 3h2M20 6h1M20 7h3M1 8h1M21 8h1M29 8h1M1 9h1M28 9h2M1 10h1M9 10h1M28 10h1M30 10h1M8 11h2M27 11h2M8 12h1M27 12h1M16 13h1M27 13h1M16 14h1M14 15h4M13 16h2M16 16h2M19 16h2M1 17h1M12 17h3M17 17h4M11 18h2M17 18h3M10 19h3M18 19h1M30 19h1M9 20h3M29 20h2M5 21h1M9 21h2M25 21h1M29 21h1M5 22h1M7 22h3M25 22h5M4 23h6M25 23h1M27 23h1M3 24h2M6 24h2M24 24h2M23 25h2M21 26h3M17 27h1M20 27h2M15 28h1M17 28h2M14 29h1M16 29h1" />
<path stroke="#deceed" d="M7 2h1M12 2h1M21 2h1M28 2h1M8 3h1M13 3h1M16 3h1M22 3h1M27 3h1M8 4h2M13 4h1M16 4h2M22 4h2M27 4h3M7 5h1M9 5h2M15 5h2M27 5h2M6 6h5M15 6h2M26 6h2M29 6h1M4 7h5M14 7h3M18 7h1M26 7h1M30 7h1M3 8h4M14 8h2M19 8h1M25 8h2M30 8h1M2 9h3M13 9h3M19 9h1M24 9h2M2 10h2M13 10h2M23 10h3M1 11h2M13 11h1M20 11h1M23 11h2M1 12h2M6 12h1M13 12h1M20 12h1M23 12h1M1 13h1M7 13h1M13 13h1M26 13h1M1 14h1M4 14h1M30 14h1M3 15h2M7 15h1M9 15h1M27 15h1M3 16h2M8 16h1M25 16h2M3 17h2M8 17h1M24 17h3M2 18h3M24 18h1M26 18h1M2 19h2M15 19h1M22 19h2M1 20h2M15 20h1M21 20h2M1 21h2M15 21h2M20 21h3M1 22h1M13 22h4M20 22h3M1 23h1M13 23h5M20 23h2M11 24h6M20 24h1M10 25h3M14 25h1M10 26h2M14 26h1M11 27h1" />
<path stroke="#b0a7b8" d="M12 3h1M11 4h2M20 4h2M19 5h5M11 6h1M21 6h2M28 6h1M10 7h2M17 7h1M27 7h3M7 8h5M16 8h2M27 8h2M5 9h6M16 9h2M26 9h2M30 9h1M7 10h2M15 10h4M26 10h2M3 11h1M14 11h5M22 11h1M25 11h2M14 12h5M21 12h2M26 12h1M2 13h1M14 13h2M17 13h3M21 13h1M23 13h1M2 14h1M12 14h4M17 14h5M1 15h1M11 15h3M18 15h4M1 16h1M11 16h2M18 16h1M30 16h1M5 17h1M9 17h3M29 17h2M5 18h2M9 18h2M25 18h1M27 18h4M4 19h6M24 19h6M3 20h6M23 20h6M3 21h2M6 21h3M23 21h2M26 21h3M2 22h3M6 22h1M23 22h2M2 23h2M22 23h3M17 24h2M21 24h3M13 25h1M15 25h4M20 25h3M9 26h1M12 26h2M15 26h6M9 27h2M12 27h5M18 27h2M11 28h4M16 28h1M13 29h1" />
</svg>