<svg xmlns="http://www.w3.org/2000/svg" viewBox="0 -0.5 32 32" shape-rendering="crispEdges">
<metadata>Made with Pixels to Svg https://codepen.io/shshaw/pen/XbxvNj</metadata>
<path stroke="#2c1e31" d="M15 0h2M13 1h2M17 1h2M11 2h2M19 2h2M9 3h2M21 3h2M7 4h2M23 4h2M25 5h1M0 8h1M31 8h1M0 9h1M31 9h1M0 10h1M31 10h1M0 11h1M31 11h1M0 12h1M31 12h1M0 13h1M31 13h1M0 14h1M31 14h1M0 15h1M31 15h1M0 16h1M31 16h1M0 17h1M31 17h1M0 18h1M31 18h1M0 19h1M31 19h1M0 20h1M31 20h1M0 21h1M31 21h1M0 22h1M31 22h1M0 23h1M31 23h1M1 24h2M29 24h2M3 25h2M27 25h2M5 26h2M25 26h2M7 27h2M23 27h2M9 28h2M21 28h2M11 29h2M19 29h2M13 30h2M17 30h2M15 31h2" />
<path stroke="#6e4c30" d="M15 1h2M16 2h2M11 3h1M17 3h1M19 3h1M10 4h1M14 4h1M20 4h2M13 5h1M19 5h1M21 5h3M12 6h1M15 6h2M18 6h1M21 6h1M14 7h5M20 7h1M14 8h2M17 8h5M19 9h2M21 10h1M20 14h2M20 15h3M20 16h2M20 17h2M19 18h3M18 19h4M16 20h7M15 21h4M21 21h3M14 22h6M22 22h3M13 23h6M24 23h2M12 24h4M25 24h4M10 25h4M20 25h1M26 25h1M9 26h4M19 26h1M22 26h2M9 27h3M15 27h1M21 27h2M14 28h1M17 28h1M19 28h2M16 29h3M15 30h2" />
<path stroke="#a26d3f" d="M13 2h3M18 2h1M13 3h4M20 3h1M9 4h1M15 4h2M22 4h1M9 5h2M15 5h2M24 5h1M10 6h2M17 6h1M22 6h2M11 7h2M21 7h2M13 8h1M16 8h1M15 9h4M17 10h4M18 11h5M19 12h5M20 13h5M22 14h3M23 15h1M22 16h1M22 17h1M22 18h1M22 19h2M23 20h2M19 21h2M24 21h2M20 22h2M25 22h2M20 23h4M26 23h2M16 24h2M21 24h4M15 25h3M22 25h4M16 26h3M24 26h1M12 27h1M17 27h3M11 28h3M18 28h1M13 29h2" />
<path stroke="#e8d282" d="M12 3h1M18 3h1M4 4h1M11 4h1M13 4h1M17 4h1M19 4h1M3 5h3M11 5h1M17 5h1M27 5h2M2 6h6M24 6h7M2 7h2M5 7h4M25 7h5M1 8h3M6 8h4M23 8h3M28 8h3M1 9h4M6 9h7M14 9h1M22 9h5M29 9h2M1 10h5M8 10h7M24 10h4M30 10h1M1 11h5M10 11h6M24 11h7M1 12h1M3 12h5M12 12h7M25 12h6M1 13h1M4 13h6M13 13h7M26 13h5M1 14h2M5 14h7M13 14h6M26 14h5M1 15h3M6 15h13M24 15h7M1 16h4M8 16h10M23 16h5M30 16h1M1 17h6M8 17h9M25 17h4M1 18h6M10 18h6M26 18h4M3 19h11M27 19h4M4 20h9M28 20h3M1 21h1M5 21h7M29 21h2M1 22h2M6 22h5M30 22h1M1 23h8M19 23h1M3 24h5M18 24h1M20 24h1M5 25h1M14 25h1M18 25h1M13 26h1M15 26h1M13 27h1" />
<path stroke="#ffc466" d="M3 4h1M5 4h2M12 4h1M18 4h1M27 4h2M2 5h1M6 5h3M12 5h1M18 5h1M26 5h1M29 5h1M8 6h2M13 6h2M19 6h2M1 7h1M9 7h2M23 7h2M30 7h1M4 8h1M10 8h3M22 8h1M26 8h1M5 9h1M13 9h1M27 9h1M7 10h1M15 10h2M23 10h1M28 10h1M7 11h2M16 11h2M2 12h1M10 12h1M2 13h1M10 13h2M25 13h1M4 14h1M19 14h1M25 14h1M5 15h1M6 16h1M18 16h1M28 16h2M23 17h2M30 17h1M9 18h1M16 18h1M23 18h1M25 18h1M30 18h1M1 19h1M14 19h1M26 19h1M2 20h1M13 20h1M27 21h1M3 22h2M27 22h1M29 22h1M10 23h1M30 23h1M19 24h1M6 25h1M19 25h1M14 26h1M20 26h2M14 27h1M15 28h2" />
<path stroke="#dab163" d="M14 5h1M20 5h1M4 7h1M13 7h1M19 7h1M5 8h1M27 8h1M21 9h1M28 9h1M6 10h1M22 10h1M29 10h1M6 11h1M9 11h1M23 11h1M8 12h2M11 12h1M24 12h1M3 13h1M12 13h1M3 14h1M12 14h1M4 15h1M19 15h1M5 16h1M7 16h1M19 16h1M7 17h1M17 17h3M29 17h1M7 18h2M17 18h2M24 18h1M2 19h1M15 19h3M24 19h2M1 20h1M3 20h1M14 20h2M25 20h3M2 21h3M12 21h3M26 21h1M28 21h1M5 22h1M11 22h3M28 22h1M9 23h1M11 23h2M28 23h2M8 24h4M7 25h3M21 25h1M7 26h2M16 27h1M20 27h1M15 29h1" />
</svg>