<svg xmlns="http://www.w3.org/2000/svg" viewBox="0 -0.5 32 32" shape-rendering="crispEdges">
<metadata>Made with Pixels to Svg https://codepen.io/shshaw/pen/XbxvNj</metadata>
<path stroke="#de5d3a" d="M11 0h1M17 0h3M8 1h1M20 1h1M20 2h2M19 3h2M17 4h3M5 5h1M16 5h2M5 6h1M12 6h3M4 7h2M9 7h5M4 8h1M7 8h2M10 8h1M13 8h1M4 9h2M7 9h1M5 10h3M27 13h2M30 15h1M30 16h1M22 17h1M29 17h2M22 18h1M28 18h1M23 19h2M26 19h3M25 20h3" />
<path stroke="#f3a833" d="M12 0h3M9 1h2M7 2h3M6 3h2M5 4h2M6 5h2M6 6h1M25 12h2M24 13h1M23 14h1M29 14h1M22 15h1M22 16h1M9 17h1M14 17h4M9 18h1M13 18h1M23 18h1M8 19h1M12 19h1M3 20h1M5 20h2M11 20h1M11 21h1" />
<path stroke="#e98537" d="M15 0h2M11 1h9M10 2h10M8 3h11M7 4h10M22 4h1M8 5h8M22 5h3M7 6h5M23 6h4M3 7h1M6 7h3M23 7h1M25 7h1M27 7h2M1 8h3M5 8h2M22 8h2M26 8h5M1 9h3M6 9h1M21 9h4M27 9h4M1 10h3M21 10h4M28 10h3M1 11h4M20 11h11M1 12h5M17 12h8M27 12h4M1 13h7M16 13h8M25 13h2M29 13h2M1 14h2M4 14h1M7 14h16M24 14h5M30 14h1M1 15h3M6 15h16M23 15h7M1 16h3M5 16h2M8 16h14M23 16h7M1 17h4M7 17h2M10 17h4M18 17h4M23 17h6M1 18h5M7 18h2M10 18h3M14 18h8M24 18h4M1 19h7M9 19h3M13 19h9M25 19h1M1 20h2M4 20h1M7 20h4M12 20h10M1 21h10M12 21h11M1 22h5M7 22h1M9 22h4M15 22h1M17 22h7M1 23h4M8 23h6M16 23h10M3 24h4M8 24h7M16 24h12M5 25h3M10 25h6M18 25h9M7 26h1M9 26h7M17 26h8M9 27h14M11 28h10M13 29h6M15 30h2" />
<path stroke="#94493a" d="M21 3h1M21 4h1M18 5h2M15 6h5M22 6h1M14 7h1M16 7h3M21 7h2M9 8h1M12 8h1M14 8h1M16 8h2M20 8h2M8 9h3M12 9h3M19 9h2M26 9h1M8 10h3M13 10h1M17 10h4M25 10h3M8 11h2M16 11h4M6 12h2M12 12h5M8 13h8M7 16h1M5 17h2M6 18h1M29 18h2M29 19h1M23 20h1M28 20h2M25 21h2M28 21h1M30 21h1M29 22h2M26 23h5M28 24h1M8 25h2M16 25h2M8 26h1M16 26h1" />
<path stroke="#2c1e31" d="M22 3h1M23 4h2M25 5h2M3 6h2M27 6h2M1 7h2M29 7h2M0 8h1M31 8h1M0 9h1M31 9h1M0 10h1M31 10h1M0 11h1M31 11h1M0 12h1M31 12h1M0 13h1M31 13h1M0 14h1M31 14h1M0 15h1M31 15h1M0 16h1M31 16h1M0 17h1M31 17h1M0 18h1M31 18h1M0 19h1M31 19h1M0 20h1M31 20h1M0 21h1M31 21h1M0 22h1M31 22h1M0 23h1M31 23h1M1 24h2M29 24h2M3 25h2M27 25h2M5 26h2M25 26h2M7 27h2M23 27h2M9 28h2M21 28h2M11 29h2M19 29h2M13 30h2M17 30h2M15 31h2" />
<path stroke="#6e4c30" d="M20 4h1M20 5h2M20 6h2M15 7h1M19 7h2M24 7h1M26 7h1M11 8h1M15 8h1M18 8h2M24 8h2M11 9h1M15 9h4M25 9h1M4 10h1M11 10h2M14 10h3M5 11h3M10 11h6M8 12h4M3 14h1M5 14h2M4 15h2M4 16h1M22 19h1M30 19h1M22 20h1M24 20h1M30 20h1M23 21h2M27 21h1M29 21h1M6 22h1M8 22h1M13 22h2M16 22h1M24 22h5M5 23h3M14 23h2M7 24h1M15 24h1" />
</svg>