<svg xmlns="http://www.w3.org/2000/svg" viewBox="0 -0.5 12 11" shape-rendering="crispEdges">
<metadata>Made with Pixels to Svg https://codepen.io/shshaw/pen/XbxvNj</metadata>
<path stroke="#ffffff" d="M0 0h1M4 2h1M6 3h1M7 4h1" />
<path stroke="#b0a7b8" d="M0 1h1M0 2h3M2 3h3M3 4h4M5 5h4M7 6h4M8 7h4M11 8h1" />
<path stroke="#deceed" d="M1 1h2M3 2h1M5 3h1M8 4h1M9 5h2M11 6h1" />
<path stroke="#5e5b8c" d="M0 3h1M1 4h1M3 5h1M5 6h1M7 7h1M8 8h1M10 9h1M11 10h1" />
<path stroke="#928a98" d="M1 3h1M2 4h1M4 5h1M6 6h1M9 8h2M11 9h1" />
</svg>