<svg xmlns="http://www.w3.org/2000/svg" viewBox="0 -0.5 4 11" shape-rendering="crispEdges">
<metadata>Made with Pixels to Svg https://codepen.io/shshaw/pen/XbxvNj</metadata>
<path stroke="#deceed" d="M0 0h1M3 0h1M3 3h1M3 4h1M0 5h1M3 7h1M0 9h1M0 10h1" />
<path stroke="#928a98" d="M1 0h1M1 1h1M1 2h1M1 5h1M1 6h1M1 7h1M1 9h1M1 10h1" />
<path stroke="#b0a7b8" d="M2 0h1M2 1h1M2 2h1M1 3h2M1 4h2M2 5h1M2 6h1M2 7h1M1 8h2M2 9h1M2 10h1" />
<path stroke="#ffffff" d="M0 1h1M3 1h1M0 2h1M3 2h1M0 3h1M0 4h1M3 5h1M0 6h1M3 6h1M0 7h1M0 8h1M3 8h1M3 9h1M3 10h1" />
</svg>