<svg xmlns="http://www.w3.org/2000/svg" viewBox="0 -0.5 12 11" shape-rendering="crispEdges">
<metadata>Made with Pixels to Svg https://codepen.io/shshaw/pen/XbxvNj</metadata>
<path stroke="#ffffff" d="M11 0h1M7 2h1M5 3h1M4 4h1M0 6h1" />
<path stroke="#deceed" d="M9 1h2M8 2h1M6 3h1M3 4h1M1 5h2" />
<path stroke="#b0a7b8" d="M11 1h1M9 2h3M7 3h3M11 3h1M5 4h4M3 5h4M1 6h4M0 7h4M0 8h1" />
<path stroke="#928a98" d="M10 3h1M9 4h1M7 5h1M5 6h1M1 8h2M0 9h1" />
<path stroke="#5e5b8c" d="M10 4h2M8 5h1M6 6h1M4 7h1M3 8h1M1 9h1M0 10h1" />
</svg>